<svg width="16" height="17" viewBox="0 0 16 17" fill="none" xmlns="http://www.w3.org/2000/svg">
<path d="M14.0001 4.94352C13.8824 5.00447 13.7453 5.01619 13.619 4.97611C13.4926 4.93603 13.3874 4.84742 13.3263 4.72977C12.8491 3.78695 12.1267 2.99008 11.2351 2.4229C11.1795 2.38785 11.1314 2.3422 11.0935 2.28856C11.0556 2.23492 11.0286 2.17433 11.0141 2.11026C10.9996 2.04618 10.9978 1.97988 11.0089 1.91513C11.02 1.85039 11.0438 1.78846 11.0788 1.7329C11.1139 1.67733 11.1595 1.62921 11.2132 1.59129C11.2668 1.55336 11.3274 1.52638 11.3915 1.51187C11.4556 1.49736 11.5219 1.49561 11.5866 1.50673C11.6514 1.51784 11.7133 1.5416 11.7688 1.57665C12.808 2.24198 13.6517 3.17137 14.2138 4.26977C14.2748 4.38747 14.2865 4.52455 14.2464 4.65089C14.2064 4.77723 14.1177 4.88248 14.0001 4.94352ZM2.23197 4.99977C2.32357 4.99973 2.4134 4.97453 2.49166 4.92692C2.56991 4.8793 2.63358 4.81111 2.67572 4.72977C3.15297 3.78695 3.87535 2.99008 4.76697 2.4229C4.87919 2.35212 4.95869 2.23966 4.988 2.11026C5.0173 1.98086 4.994 1.84512 4.92322 1.7329C4.85244 1.62068 4.73998 1.54117 4.61058 1.51187C4.48118 1.48256 4.34544 1.50587 4.23322 1.57665C3.1941 2.24198 2.35033 3.17137 1.78822 4.26977C1.74874 4.34597 1.72954 4.43105 1.73247 4.51682C1.73539 4.60258 1.76035 4.68616 1.80492 4.75949C1.8495 4.83282 1.9122 4.89345 1.98699 4.93553C2.06179 4.97761 2.14615 4.99973 2.23197 4.99977ZM13.8632 11.496C13.9518 11.6479 13.9988 11.8205 13.9994 11.9963C14 12.1722 13.9542 12.3451 13.8667 12.4976C13.7791 12.6501 13.6529 12.7768 13.5008 12.865C13.3486 12.9531 13.1759 12.9996 13.0001 12.9998H10.4501C10.3353 13.5649 10.0287 14.073 9.58222 14.438C9.13572 14.8029 8.57677 15.0023 8.00009 15.0023C7.42342 15.0023 6.86447 14.8029 6.41796 14.438C5.97146 14.073 5.66485 13.5649 5.55009 12.9998H3.00009C2.82436 12.9994 2.65181 12.9528 2.49985 12.8645C2.34788 12.7763 2.22186 12.6495 2.13447 12.497C2.04708 12.3446 2.00142 12.1718 2.00207 11.996C2.00273 11.8203 2.04969 11.6478 2.13822 11.496C2.70134 10.5241 3.00009 9.14227 3.00009 7.49977C3.00009 6.17369 3.52688 4.90192 4.46456 3.96424C5.40224 3.02655 6.67401 2.49977 8.00009 2.49977C9.32618 2.49977 10.5979 3.02655 11.5356 3.96424C12.4733 4.90192 13.0001 6.17369 13.0001 7.49977C13.0001 9.14165 13.2988 10.5235 13.8632 11.496ZM9.41384 12.9998H6.58634C6.68993 13.2919 6.88147 13.5448 7.13463 13.7236C7.38779 13.9024 7.69014 13.9985 8.00009 13.9985C8.31005 13.9985 8.61239 13.9024 8.86555 13.7236C9.11871 13.5448 9.31025 13.2919 9.41384 12.9998ZM13.0001 11.9998C12.3351 10.8579 12.0001 9.34415 12.0001 7.49977C12.0001 6.4389 11.5787 5.42149 10.8285 4.67134C10.0784 3.9212 9.06096 3.49977 8.00009 3.49977C6.93923 3.49977 5.92181 3.9212 5.17167 4.67134C4.42152 5.42149 4.00009 6.4389 4.00009 7.49977C4.00009 9.34477 3.66384 10.8585 3.00009 11.9998H13.0001Z" fill="white"/>
</svg>
