<svg width="15" height="14" viewBox="0 0 15 14" fill="none" xmlns="http://www.w3.org/2000/svg">
<g opacity="0.6">
<path d="M12.1845 5.55953L7.80953 9.93453C7.7689 9.97521 7.72065 10.0075 7.66754 10.0295C7.61442 10.0515 7.55749 10.0628 7.5 10.0628C7.4425 10.0628 7.38557 10.0515 7.33246 10.0295C7.27935 10.0075 7.2311 9.97521 7.19047 9.93453L2.81547 5.55953C2.73338 5.47744 2.68726 5.3661 2.68726 5.25C2.68726 5.1339 2.73338 5.02256 2.81547 4.94047C2.89756 4.85837 3.0089 4.81226 3.125 4.81226C3.2411 4.81226 3.35244 4.85837 3.43453 4.94047L7.5 9.00648L11.5655 4.94047C11.6061 4.89982 11.6544 4.86758 11.7075 4.84558C11.7606 4.82358 11.8175 4.81226 11.875 4.81226C11.9325 4.81226 11.9894 4.82358 12.0425 4.84558C12.0956 4.86758 12.1439 4.89982 12.1845 4.94047C12.2252 4.98112 12.2574 5.02937 12.2794 5.08248C12.3014 5.13559 12.3127 5.19251 12.3127 5.25C12.3127 5.30748 12.3014 5.36441 12.2794 5.41752C12.2574 5.47063 12.2252 5.51888 12.1845 5.55953Z" fill="white"/>
</g>
</svg>
