<svg width="11" height="8" viewBox="0 0 11 8" fill="none" xmlns="http://www.w3.org/2000/svg">
<path d="M9.89795 1.27299L3.89795 7.27299C3.84569 7.32543 3.78359 7.36704 3.71522 7.39543C3.64685 7.42382 3.57354 7.43843 3.49951 7.43843C3.42548 7.43843 3.35217 7.42382 3.2838 7.39543C3.21543 7.36704 3.15333 7.32543 3.10107 7.27299L0.476073 4.64799C0.42375 4.59566 0.382244 4.53355 0.353927 4.46518C0.32561 4.39682 0.311035 4.32355 0.311035 4.24955C0.311035 4.17555 0.32561 4.10228 0.353927 4.03392C0.382244 3.96555 0.42375 3.90344 0.476073 3.85111C0.528397 3.79879 0.590514 3.75728 0.658878 3.72897C0.727242 3.70065 0.800514 3.68607 0.874511 3.68607C0.948508 3.68607 1.02178 3.70065 1.09014 3.72897C1.15851 3.75728 1.22062 3.79879 1.27295 3.85111L3.49998 6.07814L9.10201 0.47705C9.20768 0.371378 9.351 0.312012 9.50045 0.312012C9.64989 0.312012 9.79321 0.371378 9.89889 0.47705C10.0046 0.582722 10.0639 0.726044 10.0639 0.875488C10.0639 1.02493 10.0046 1.16825 9.89889 1.27393L9.89795 1.27299Z" fill="white"/>
</svg>
