<svg width="14" height="14" viewBox="0 0 14 14" fill="none" xmlns="http://www.w3.org/2000/svg">
<path d="M12.8668 3.6975C13.5606 5.14863 13.6923 6.80533 13.2365 8.34786C12.7807 9.89039 11.7696 11.2094 10.3985 12.0503C9.02736 12.8912 7.39333 13.1944 5.81177 12.9014C4.23022 12.6084 2.81325 11.74 1.83436 10.4637C0.855467 9.18738 0.384035 7.59372 0.511051 5.99027C0.638068 4.38683 1.35453 2.88727 2.52215 1.78101C3.68978 0.674743 5.2258 0.0402031 6.83376 -0.000147799C8.44173 -0.0404987 10.0076 0.5162 11.2293 1.5625L12.6462 0.145005C12.74 0.0511843 12.8672 -0.00152336 12.9999 -0.00152336C13.1326 -0.00152336 13.2598 0.0511843 13.3537 0.145005C13.4475 0.238825 13.5002 0.366073 13.5002 0.498755C13.5002 0.631437 13.4475 0.758684 13.3537 0.852505L7.35366 6.8525C7.25984 6.94633 7.13259 6.99903 6.99991 6.99903C6.86723 6.99903 6.73998 6.94633 6.64616 6.8525C6.55234 6.75868 6.49963 6.63144 6.49963 6.49875C6.49963 6.36607 6.55234 6.23882 6.64616 6.145L8.37866 4.4125C7.90913 4.10198 7.34854 3.959 6.78764 4.00672C6.22674 4.05444 5.69836 4.29007 5.28804 4.67546C4.87772 5.06084 4.60948 5.57343 4.52673 6.13024C4.44399 6.68705 4.55158 7.2555 4.83211 7.74355C5.11263 8.2316 5.54966 8.61069 6.07244 8.81945C6.59523 9.02821 7.17317 9.05443 7.71271 8.89385C8.25224 8.73328 8.7218 8.39531 9.04535 7.93466C9.36891 7.47401 9.52753 6.91765 9.49553 6.35563C9.49184 6.28997 9.50112 6.22422 9.52283 6.16215C9.54455 6.10007 9.57828 6.04288 9.62209 5.99384C9.66591 5.9448 9.71896 5.90487 9.77821 5.87633C9.83746 5.84779 9.90175 5.8312 9.96741 5.8275C10.1 5.82005 10.2302 5.86557 10.3292 5.95406C10.3782 5.99788 10.4182 6.05093 10.4467 6.11018C10.4753 6.16943 10.4918 6.23372 10.4955 6.29938C10.5411 7.09487 10.3139 7.8821 9.85147 8.53096C9.38902 9.17982 8.71902 9.65147 7.9522 9.86795C7.18538 10.0844 6.36765 10.0328 5.63415 9.72157C4.90066 9.41034 4.29532 8.85815 3.91817 8.15627C3.54102 7.45439 3.41465 6.64483 3.55995 5.86139C3.70524 5.07796 4.1135 4.36755 4.71725 3.84758C5.32099 3.32762 6.08408 3.02921 6.8804 3.0017C7.67672 2.97418 8.45859 3.2192 9.09679 3.69625L10.5187 2.27438C9.47666 1.40925 8.15177 0.959606 6.79844 1.0118C5.44512 1.064 4.1588 1.61436 3.18653 2.55717C2.21426 3.49999 1.6246 4.76878 1.53081 6.11985C1.43702 7.47093 1.84571 8.80903 2.67838 9.87714C3.51106 10.9453 4.709 11.6681 6.04213 11.9067C7.37526 12.1454 8.74958 11.8832 9.90112 11.1703C11.0527 10.4575 11.9002 9.34428 12.281 8.04459C12.6618 6.7449 12.549 5.35034 11.9643 4.12875C11.9071 4.00908 11.8998 3.87158 11.944 3.74652C11.9882 3.62145 12.0802 3.51907 12.1999 3.46188C12.3196 3.40469 12.4571 3.39739 12.5821 3.44158C12.7072 3.48577 12.8096 3.57783 12.8668 3.6975Z" fill="white"/>
</svg>
